<svg width="38" height="17" xmlns="http://www.w3.org/2000/svg">

 <g>
  <rect fill="none" id="canvas_background" height="19" width="40" y="-1" x="-1"/>
 </g>
 <g>
  <title>Layer 1</title>
  <path id="svg_1" fill="#F1F1F1" d="m26.9399,10.8873c2.5473,2.7309 5.7017,6.1127 11.7272,6.1127l-0.0671,-6.6522c-3.5579,0 -5.2362,-1.77389 -7.5186,-4.21302l-0.0206,-0.02205c-2.5473,-2.73097 -5.7017,-6.11273 -11.7272,-6.11273c-6.0927,0 -9.2472,3.38196 -11.79464,6.11297l-0.02035,0.02181c-2.28244,2.43913 -3.89357,4.21302 -7.51861,4.21302l0,6.6522c6.04174,0 9.19687,-3.4 11.815,-6.1348c2.2824,-2.43912 3.8935,-4.21303 7.5186,-4.21303c3.5278,0 5.2076,1.74406 7.5263,4.15133l0.0594,0.0617l0.0206,0.0221z" />
 </g>
</svg>