<svg width="16" height="6"
  xmlns="http://www.w3.org/2000/svg">
  <g>
    <rect fill="none" id="canvas_background" height="8" width="18" y="-1" x="-1"/>
  </g>
  <g>
    <path id="svg_1" fill="currentColor " d="m8.01391,2.34783c-1.48283,0 -2.1527,0.60971 -3.0793,1.45308l-0.03722,0.03387l-0.05204,0.04631c-1.07515,0.95684 -2.3809,2.11891 -4.84535,2.11891l0,-2.34783c1.48283,0 2.15271,-0.60971 3.0793,-1.45308l0.03722,-0.03387l0.00844,-0.0077c1.05591,-0.96389 2.36351,-2.15752 4.88895,-2.15752c2.49759,0 3.80519,1.19356 4.86109,2.15743l0.0085,0.00779c0.9461,0.86087 1.6417,1.48695 3.1165,1.48695l0.0278,2.34783c-2.4976,0 -3.8051,-1.19356 -4.861,-2.15743l-0.0085,-0.00779l-0.0247,-0.02177c-0.9611,-0.84964 -1.65737,-1.46518 -3.11969,-1.46518z" fill="currentColor "/>
  </g>
</svg>
